<svg xmlns="http://www.w3.org/2000/svg" xmlns:xlink="http://www.w3.org/1999/xlink" width="184.96" height="60" viewBox="0 0 184.96 60">
  <defs>
    <linearGradient id="linear-gradient" y1="0.162" x2="1" y2="1" gradientUnits="objectBoundingBox">
      <stop offset="0" stop-color="#00aeef"/>
      <stop offset="1" stop-color="#2e3192"/>
    </linearGradient>
  </defs>
  <g id="Group_3433" data-name="Group 3433" transform="translate(1100.063 -3248.49)">
    <path id="Background_Black" data-name="Background Black" d="M11.877,60c-.478,0-.944-.006-1.418-.017a19.9,19.9,0,0,1-2.932-.256,9.229,9.229,0,0,1-2.6-.859A8.479,8.479,0,0,1,2.737,57.27a8.346,8.346,0,0,1-1.6-2.19,8.975,8.975,0,0,1-.852-2.6,19.471,19.471,0,0,1-.261-2.941C.013,49.209,0,48.107,0,48.107V11.873s.014-1.085.023-1.4a19.4,19.4,0,0,1,.26-2.936,9.028,9.028,0,0,1,.852-2.607A8.429,8.429,0,0,1,2.727,2.733a8.73,8.73,0,0,1,2.2-1.6A9.134,9.134,0,0,1,7.52.276,19.741,19.741,0,0,1,10.462.019L11.877,0h161.2l1.432.02a19.426,19.426,0,0,1,2.915.255,9.315,9.315,0,0,1,2.621.859,8.774,8.774,0,0,1,3.788,3.8,9.039,9.039,0,0,1,.839,2.586,20.382,20.382,0,0,1,.273,2.96c0,.444,0,.921,0,1.4.012.588.012,1.148.012,1.713V46.413c0,.57,0,1.126-.012,1.687,0,.51,0,.977-.006,1.458a19.963,19.963,0,0,1-.268,2.907,9,9,0,0,1-.847,2.619,8.6,8.6,0,0,1-1.593,2.174,8.49,8.49,0,0,1-2.2,1.6,9.194,9.194,0,0,1-2.616.862,19.672,19.672,0,0,1-2.932.256c-.459.011-.94.017-1.408.017l-1.7,0Z" transform="translate(-1100.063 3248.49)" fill="url(#linear-gradient)"/>
    <path id="Subtraction_9" data-name="Subtraction 9" d="M3.144,19.48H0L7.032,0H10.3l7.031,19.476-3.2,0-1.782-5.264H4.927L3.144,19.478ZM8.6,3.24h0L5.7,11.785h5.885L8.68,3.24Z" transform="translate(-1047.432 3275.474)" fill="#fff" stroke="rgba(0,0,0,0)" stroke-miterlimit="10" stroke-width="1"/>
    <path id="Subtraction_10" data-name="Subtraction 10" d="M2.915,19.051H0V.151H2.822V2.514h.052A5.055,5.055,0,0,1,7.236,0L7.4,0c3.633,0,5.98,2.846,5.98,7.25S11.051,14.5,7.451,14.5c-.084,0-.17.007-.255.007a4.813,4.813,0,0,1-4.214-2.491H2.915v7.034ZM6.628,2.487C4.4,2.487,2.9,4.4,2.9,7.253S4.4,12.03,6.628,12.03c2.279,0,3.752-1.875,3.752-4.777S8.907,2.487,6.628,2.487Z" transform="translate(-1028.289 3280.6)" fill="#fff" stroke="rgba(0,0,0,0)" stroke-miterlimit="10" stroke-width="1"/>
    <path id="Subtraction_11" data-name="Subtraction 11" d="M2.915,19.051H0V.151H2.821V2.514h.054A5.055,5.055,0,0,1,7.236,0L7.4,0c3.633,0,5.98,2.846,5.98,7.25S11.051,14.5,7.451,14.5c-.084,0-.17.007-.255.007a4.813,4.813,0,0,1-4.214-2.491H2.915v7.034ZM6.628,2.487C4.4,2.487,2.9,4.4,2.9,7.253S4.4,12.03,6.628,12.03c2.279,0,3.752-1.875,3.752-4.777S8.907,2.487,6.628,2.487Z" transform="translate(-1012.659 3280.6)" fill="#fff" stroke="rgba(0,0,0,0)" stroke-miterlimit="10" stroke-width="1"/>
    <path id="Shape" d="M2.984,14.376c.216,1.932,2.092,3.2,4.657,3.2,2.457,0,4.225-1.268,4.225-3.01,0-1.512-1.066-2.417-3.59-3.038L5.75,10.92C2.174,10.056.513,8.383.513,5.669.513,2.308,3.442,0,7.6,0c4.116,0,6.937,2.308,7.032,5.669H11.691c-.176-1.944-1.783-3.117-4.131-3.117S3.6,3.739,3.6,5.467c0,1.377,1.026,2.187,3.537,2.808L9.287,8.8c4,.945,5.657,2.55,5.657,5.4,0,3.644-2.9,5.926-7.52,5.926C3.1,20.128.188,17.9,0,14.376Z" transform="translate(-991.936 3275.149)" fill="#fff"/>
    <path id="Shape-2" data-name="Shape" d="M4.994,0V3.361h2.7V5.669h-2.7V13.5c0,1.216.541,1.783,1.728,1.783a9.109,9.109,0,0,0,.959-.067v2.295a8,8,0,0,1-1.619.135c-2.875,0-4-1.08-4-3.834V5.669H0V3.361H2.065V0Z" transform="translate(-975.694 3277.39)" fill="#fff"/>
    <path id="Subtraction_12" data-name="Subtraction 12" d="M6.735,14.552C2.581,14.552,0,11.764,0,7.276A7.632,7.632,0,0,1,1.829,1.962,6.484,6.484,0,0,1,6.735,0a6.487,6.487,0,0,1,4.912,1.962,7.637,7.637,0,0,1,1.825,5.313C13.472,11.764,10.89,14.552,6.735,14.552Zm0-12.149C4.378,2.4,2.97,4.224,2.97,7.276s1.407,4.873,3.765,4.873S10.5,10.327,10.5,7.276,9.094,2.4,6.735,2.4Z" transform="translate(-966.436 3280.576)" fill="#fff" stroke="rgba(0,0,0,0)" stroke-miterlimit="10" stroke-width="1"/>
    <path id="Shape-3" data-name="Shape" d="M0,.151H2.78V2.568h.067A3.387,3.387,0,0,1,6.264,0a4.5,4.5,0,0,1,1,.109V2.838a4.075,4.075,0,0,0-1.31-.176A2.937,2.937,0,0,0,2.915,5.929v8.423H0Z" transform="translate(-950.561 3280.6)" fill="#fff"/>
    <path id="Subtraction_1" data-name="Subtraction 1" d="M6.7,14.552c-4.13,0-6.7-2.762-6.7-7.208S2.58,0,6.573,0c3.947,0,6.4,2.684,6.4,7V8H2.942v.176a3.7,3.7,0,0,0,3.683,4.024l.138,0c.1.009.2.014.3.014a3.2,3.2,0,0,0,2.978-2.012H12.81C12.42,12.765,9.905,14.552,6.7,14.552ZM6.546,2.363A3.616,3.616,0,0,0,4.013,3.411,3.573,3.573,0,0,0,2.956,5.967h7.1a3.415,3.415,0,0,0-3.407-3.6h-.1Z" transform="translate(-942.669 3280.576)" fill="#fff" stroke="rgba(0,0,0,0)" stroke-miterlimit="10" stroke-width="1"/>
    <path id="Subtraction_8" data-name="Subtraction 8" d="M3.381,9.37H0V.011H3.381c.1-.007.2-.011.3-.011A4.141,4.141,0,0,1,7.784,4.661C7.784,7.654,6.179,9.37,3.381,9.37ZM1.454,1.333h0V8.046H3.219c.053,0,.111.006.178.006A2.943,2.943,0,0,0,6.3,4.681,2.95,2.95,0,0,0,3.384,1.329q-.082,0-.165,0H1.454Z" transform="translate(-1045.481 3260.802)" fill="#fff" stroke="rgba(0,0,0,0)" stroke-miterlimit="10" stroke-width="1"/>
    <path id="Subtraction_7" data-name="Subtraction 7" d="M3.346,7.335A3.346,3.346,0,0,1,.016,3.664,3.346,3.346,0,0,1,5.111.5,3.324,3.324,0,0,1,6.678,3.664,3.346,3.346,0,0,1,3.346,7.335Zm0-6.1c-1.2,0-1.893.884-1.893,2.425S2.146,6.1,3.349,6.1s1.894-.887,1.894-2.432S4.553,1.238,3.349,1.238Z" transform="translate(-1036.071 3262.973)" fill="#fff" stroke="rgba(0,0,0,0)" stroke-miterlimit="10" stroke-width="1"/>
    <path id="Shape-4" data-name="Shape" d="M7.849,7.063H6.4l-1.46-5.2h-.11l-1.454,5.2H1.947L0,0H1.414L2.679,5.39h.1L4.235,0H5.573L7.025,5.39h.11L8.394,0H9.788Z" transform="translate(-1028.387 3263.109)" fill="#fff"/>
    <path id="Shape-5" data-name="Shape" d="M0,.143H1.342V1.265h.1A2.114,2.114,0,0,1,3.554.007,2.3,2.3,0,0,1,6,2.634V7.206H4.6V2.984c0-1.135-.493-1.7-1.524-1.7a1.62,1.62,0,0,0-1.686,1.79V7.206H0Z" transform="translate(-1016.961 3262.966)" fill="#fff"/>
    <path id="Shape-6" data-name="Shape" d="M0,0H1.394V9.82H0Z" transform="translate(-1008.742 3260.352)" fill="#fff"/>
    <path id="Subtraction_6" data-name="Subtraction 6" d="M3.348,7.335A3.348,3.348,0,0,1,.016,3.664,3.347,3.347,0,0,1,5.112.5,3.325,3.325,0,0,1,6.678,3.664a3.346,3.346,0,0,1-3.33,3.672Zm0-6.1c-1.2,0-1.893.884-1.893,2.425S2.146,6.1,3.349,6.1s1.894-.887,1.894-2.432S4.553,1.238,3.349,1.238Z" transform="translate(-1005.426 3262.973)" fill="#fff" stroke="rgba(0,0,0,0)" stroke-miterlimit="10" stroke-width="1"/>
    <path id="Subtraction_5" data-name="Subtraction 5" d="M2.135,7.328A2.133,2.133,0,0,1,0,5.2c0-1.255.933-2,2.627-2.108L4.54,2.983V2.374c0-.753-.513-1.167-1.446-1.167-.782,0-1.319.286-1.472.785H.272C.415.781,1.548,0,3.158,0c1.76,0,2.77.865,2.77,2.374V7.2H4.585V6.207h-.11a2.36,2.36,0,0,1-2.01,1.112l-.11,0A2.146,2.146,0,0,1,2.135,7.328ZM4.54,4.008l-1.725.112C1.851,4.184,1.4,4.507,1.4,5.137c0,.611.514,1.005,1.309,1.005a1.7,1.7,0,0,0,.171.008A1.665,1.665,0,0,0,4.54,4.6Z" transform="translate(-997.28 3262.972)" fill="#fff" stroke="rgba(0,0,0,0)" stroke-miterlimit="10" stroke-width="1"/>
    <path id="Subtraction_4" data-name="Subtraction 4" d="M3.023,9.939l-.091,0C1.124,9.937,0,8.538,0,6.286,0,4.071,1.151,2.64,2.932,2.64l.106,0A2.323,2.323,0,0,1,5.1,3.879h.1V0H6.6V9.821H5.26V8.7H5.15A2.457,2.457,0,0,1,3.023,9.939Zm.3-6.045c-1.182,0-1.887.894-1.887,2.393s.706,2.4,1.887,2.4,1.9-.917,1.9-2.394S4.5,3.893,3.327,3.893Z" transform="translate(-989.52 3260.351)" fill="#fff" stroke="rgba(0,0,0,0)" stroke-miterlimit="10" stroke-width="1"/>
    <path id="Subtraction_3" data-name="Subtraction 3" d="M3.346,7.335A3.346,3.346,0,0,1,.016,3.664,3.346,3.346,0,0,1,5.111.5,3.324,3.324,0,0,1,6.678,3.664,3.346,3.346,0,0,1,3.346,7.335Zm0-6.1c-1.2,0-1.893.884-1.893,2.425S2.146,6.1,3.349,6.1s1.894-.887,1.894-2.432S4.553,1.238,3.349,1.238Z" transform="translate(-977.173 3262.973)" fill="#fff" stroke="rgba(0,0,0,0)" stroke-miterlimit="10" stroke-width="1"/>
    <path id="Shape-7" data-name="Shape" d="M0,.143H1.342V1.265h.1A2.114,2.114,0,0,1,3.554.007,2.3,2.3,0,0,1,6,2.634V7.206H4.6V2.984c0-1.135-.493-1.7-1.524-1.7a1.62,1.62,0,0,0-1.686,1.79V7.206H0Z" transform="translate(-968.625 3262.966)" fill="#fff"/>
    <path id="Shape-8" data-name="Shape" d="M2.517,0V1.791h1.53V2.965H2.517V6.6c0,.74.3,1.064,1,1.064a4.653,4.653,0,0,0,.532-.032V8.789a4.573,4.573,0,0,1-.758.071c-1.55,0-2.167-.545-2.167-1.907V2.965H0V1.791H1.121V0Z" transform="translate(-957.267 3261.35)" fill="#fff"/>
    <path id="Shape-9" data-name="Shape" d="M0,0H1.382V3.892h.11A2.173,2.173,0,0,1,3.646,2.627,2.327,2.327,0,0,1,6.078,5.26V9.82h-1.4V5.6c0-1.128-.525-1.7-1.51-1.7A1.65,1.65,0,0,0,1.394,5.7V9.82H0Z" transform="translate(-951.316 3260.352)" fill="#fff"/>
    <path id="Subtraction_2" data-name="Subtraction 2" d="M3.6,7.353a2.9,2.9,0,0,1-.311-.017H3.21A3.208,3.208,0,0,1,.03,3.69,3.258,3.258,0,0,1,3.263,0h.024C5.26,0,6.438,1.332,6.438,3.562v.486H1.45v.079A1.867,1.867,0,0,0,3.311,6.15h.02a1.694,1.694,0,0,0,1.681-.857H6.353A2.882,2.882,0,0,1,3.6,7.353Zm-.35-6.166a1.806,1.806,0,0,0-1.8,1.83H5.018a1.7,1.7,0,0,0-1.7-1.83H3.254Z" transform="translate(-943.464 3262.972)" fill="#fff" stroke="rgba(0,0,0,0)" stroke-miterlimit="10" stroke-width="1"/>
    <path id="Shape-10" data-name="Shape" d="M23.21,9.925a7.762,7.762,0,0,1,3.7-6.513A7.946,7.946,0,0,0,20.646.028C18.012-.248,15.459,1.6,14.117,1.6,12.748,1.6,10.682.056,8.457.1A8.337,8.337,0,0,0,1.441,4.38C-1.593,9.632.67,17.351,3.576,21.6,5.03,23.675,6.729,26,8.952,25.915c2.176-.09,2.988-1.387,5.614-1.387,2.6,0,3.364,1.387,5.633,1.335,2.335-.038,3.805-2.088,5.208-4.187a17.194,17.194,0,0,0,2.382-4.851,7.5,7.5,0,0,1-4.579-6.9Z" transform="translate(-1085.792 3269.035)" fill="#fff"/>
    <path id="Shape-11" data-name="Shape" d="M5.092,5.475A7.643,7.643,0,0,0,6.841,0,7.776,7.776,0,0,0,1.809,2.6,7.272,7.272,0,0,0,.015,7.876a6.43,6.43,0,0,0,5.077-2.4Z" transform="translate(-1071.959 3260.796)" fill="#fff"/>
  </g>
</svg>
