<svg xmlns="http://www.w3.org/2000/svg" xmlns:xlink="http://www.w3.org/1999/xlink" width="201" height="60" viewBox="0 0 201 60">
  <defs>
    <linearGradient id="linear-gradient" y1="0.162" x2="1" y2="1" gradientUnits="objectBoundingBox">
      <stop offset="0" stop-color="#00aeef"/>
      <stop offset="1" stop-color="#2e3192"/>
    </linearGradient>
    <linearGradient id="linear-gradient-2" x1="0.915" y1="0.049" x2="-0.384" y2="0.719" gradientUnits="objectBoundingBox">
      <stop offset="0" stop-color="#00a0ff"/>
      <stop offset="0.01" stop-color="#00a1ff"/>
      <stop offset="0.26" stop-color="#00beff"/>
      <stop offset="0.51" stop-color="#00d2ff"/>
      <stop offset="0.76" stop-color="#00dfff"/>
      <stop offset="1" stop-color="#00e3ff"/>
    </linearGradient>
    <linearGradient id="linear-gradient-3" x1="1.077" y1="0.5" x2="-1.306" y2="0.5" gradientUnits="objectBoundingBox">
      <stop offset="0" stop-color="#ffe000"/>
      <stop offset="0.41" stop-color="#ffbd00"/>
      <stop offset="0.78" stop-color="orange"/>
      <stop offset="1" stop-color="#ff9c00"/>
    </linearGradient>
    <linearGradient id="linear-gradient-4" x1="0.862" y1="0.179" x2="-0.501" y2="1.947" gradientUnits="objectBoundingBox">
      <stop offset="0" stop-color="#ff3a44"/>
      <stop offset="1" stop-color="#c31162"/>
    </linearGradient>
    <linearGradient id="linear-gradient-5" x1="-0.188" y1="-0.541" x2="0.421" y2="0.249" gradientUnits="objectBoundingBox">
      <stop offset="0" stop-color="#32a071"/>
      <stop offset="0.07" stop-color="#2da771"/>
      <stop offset="0.48" stop-color="#15cf74"/>
      <stop offset="0.8" stop-color="#06e775"/>
      <stop offset="1" stop-color="#00f076"/>
    </linearGradient>
  </defs>
  <g id="Group_3432" data-name="Group 3432" transform="translate(906.937 -3247)">
    <rect id="Background_Black" data-name="Background Black" width="201" height="60" rx="5" transform="translate(-906.937 3247)" fill="url(#linear-gradient)"/>
    <path id="Subtraction_30" data-name="Subtraction 30" d="M6.333,12.67A6.335,6.335,0,0,1,6.3,0h.119a6.2,6.2,0,0,1,4.406,1.819,6.269,6.269,0,0,1,1.839,4.516A6.344,6.344,0,0,1,6.343,12.67ZM6.038,2.5a3.845,3.845,0,1,0,0,7.691c.1,0,.185,0,.27-.009A3.665,3.665,0,0,0,9.881,6.335,3.843,3.843,0,0,0,6.038,2.5Z" transform="translate(-812.378 3279.415)" fill="#fff" stroke="rgba(0,0,0,0)" stroke-miterlimit="10" stroke-width="1"/>
    <path id="Subtraction_31" data-name="Subtraction 31" d="M6.339,12.67h0A6.335,6.335,0,0,1,6.319,0h.1a6.2,6.2,0,0,1,4.406,1.819,6.269,6.269,0,0,1,1.839,4.516A6.343,6.343,0,0,1,6.339,12.67ZM6.036,2.5a3.845,3.845,0,0,0,0,7.691c.088,0,.181,0,.284-.011H6.3A3.665,3.665,0,0,0,9.88,6.335,3.847,3.847,0,0,0,6.036,2.5Z" transform="translate(-826.268 3279.415)" fill="#fff" stroke="rgba(0,0,0,0)" stroke-miterlimit="10" stroke-width="1"/>
    <path id="Path" d="M10.235,9.039v2.683h6.439a5.619,5.619,0,0,1-1.49,3.383,6.588,6.588,0,0,1-4.963,1.967,7.154,7.154,0,0,1,0-14.308,6.856,6.856,0,0,1,4.874,1.923l1.893-1.893A9.375,9.375,0,0,0,10.235.007a9.852,9.852,0,1,0,0,19.688,8.942,8.942,0,0,0,6.871-2.757,8.942,8.942,0,0,0,2.325-6.29,8.749,8.749,0,0,0-.149-1.684Z" transform="translate(-846.713 3272.329)" fill="#fff"/>
    <path id="Subtraction_28" data-name="Subtraction 28" d="M6.212,12.67a6.2,6.2,0,0,1-6.2-6.335A5.964,5.964,0,0,1,5.964,0h.01A5.994,5.994,0,0,1,11.4,4.039l.314.671-8.481,3.5a3.223,3.223,0,0,0,2.949,1.924l.122,0h.008A3.646,3.646,0,0,0,9.417,8.377l2.161,1.49a6.294,6.294,0,0,1-5.245,2.8H6.212ZM6.228,2.455c-.054,0-.11,0-.164.005a3.47,3.47,0,0,0-3.309,3.7L8.418,3.8A2.445,2.445,0,0,0,6.228,2.455Z" transform="translate(-780.346 3279.416)" fill="#fff" stroke="rgba(0,0,0,0)" stroke-miterlimit="10" stroke-width="1"/>
    <path id="Path-2" data-name="Path" d="M0,18.63H2.787V0H0Z" transform="translate(-784.478 3273.082)" fill="#fff"/>
    <path id="Subtraction_29" data-name="Subtraction 29" d="M6.049,18.333A6.017,6.017,0,0,1,.467,14.591L2.9,13.579a3.488,3.488,0,0,0,3.19,2.249c2.15,0,3.383-1.358,3.383-3.725v-.909H9.38a4.324,4.324,0,0,1-3.266,1.491H6.041A6.349,6.349,0,0,1,6.041,0,4.486,4.486,0,0,1,9.38,1.49h.1V.448h2.565V11.73a6.816,6.816,0,0,1-1.757,5.056,5.835,5.835,0,0,1-4.205,1.546ZM6.3,2.563a3.861,3.861,0,0,0-.015,7.691H6.29A3.548,3.548,0,0,0,9.678,6.409,3.578,3.578,0,0,0,6.3,2.563Z" transform="translate(-798.522 3279.341)" fill="#fff" stroke="rgba(0,0,0,0)" stroke-miterlimit="10" stroke-width="1"/>
    <path id="Subtraction_26" data-name="Subtraction 26" d="M2.787,18.645H0V.015H6.677C6.814,0,6.954,0,7.091,0a5.836,5.836,0,0,1,4.952,2.781A5.8,5.8,0,0,1,7.094,11.6c-.138,0-.278-.005-.416-.015H2.787v7.062ZM2.771,2.609h0V8.958h3.89L6.722,9a3.2,3.2,0,1,0,0-6.393H2.771Z" transform="translate(-762.554 3273.067)" fill="#fff" stroke="rgba(0,0,0,0)" stroke-miterlimit="10" stroke-width="1"/>
    <path id="Subtraction_25" data-name="Subtraction 25" d="M4.3,12.69h0A4.307,4.307,0,0,1,0,8.579,3.719,3.719,0,0,1,1.682,5.474,6.524,6.524,0,0,1,5.365,4.391H5.39a6.182,6.182,0,0,1,2.881.715V4.913a2.683,2.683,0,0,0-2.981-2.4c-.072-.006-.145-.009-.217-.009a2.635,2.635,0,0,0-2.317,1.38L.283,2.857A5.193,5.193,0,0,1,4.935,0c.1,0,.208,0,.311.009L5.32.055c3.379,0,5.65,2.072,5.65,5.156v7.17H8.287V10.889H8.2a3.9,3.9,0,0,1-3.3,1.8c-.093,0-.187,0-.28-.01S4.408,12.69,4.3,12.69ZM5.828,6.656h-.12c-1.441,0-2.981.521-2.981,1.983,0,1.15,1.335,1.579,2.176,1.579l.075.046A3.383,3.383,0,0,0,8.241,7.283,4.959,4.959,0,0,0,5.828,6.656Z" transform="translate(-743.953 3279.332)" fill="#fff" stroke="rgba(0,0,0,0)" stroke-miterlimit="10" stroke-width="1"/>
    <path id="Path-3" data-name="Path" d="M9.568,0,6.379,8.078H6.29L2.981,0H0L4.963,11.3,2.131,17.572H5.038L12.668,0Z" transform="translate(-732.776 3279.789)" fill="#fff"/>
    <path id="Path-4" data-name="Path" d="M0,18.63H2.787V0H0Z" transform="translate(-748.261 3273.082)" fill="#fff"/>
    <path id="Path-5" data-name="Path" d="M9.055,5.039A4.039,4.039,0,0,1,7.937,8.019,4.337,4.337,0,0,1,4.658,9.346a4.695,4.695,0,0,1-3.294-8A4.471,4.471,0,0,1,4.658,0,4.62,4.62,0,0,1,6.491.374a3.681,3.681,0,0,1,1.4,1l-.79.79A2.981,2.981,0,0,0,4.658,1.1,3.458,3.458,0,0,0,1.186,4.681,3.517,3.517,0,0,0,7.147,7.259a2.817,2.817,0,0,0,.745-1.818H4.658V4.368H9a3.786,3.786,0,0,1,.06.671Z" transform="translate(-846.01 3257.223)" fill="#fff" stroke="#fff" stroke-miterlimit="10" stroke-width="0.2"/>
    <path id="Path-6" data-name="Path" d="M5.216,1.1H1.192V3.935H4.859V5.008H1.192V7.84H5.216v1.1H0V0H5.216Z" transform="translate(-835.345 3257.433)" fill="#fff" stroke="#fff" stroke-miterlimit="10" stroke-width="0.2"/>
    <path id="Path-7" data-name="Path" d="M3.651,8.942H2.5V1.1H0V0H6.215V1.1H3.651Z" transform="translate(-828.892 3257.433)" fill="#fff" stroke="#fff" stroke-miterlimit="10" stroke-width="0.2"/>
    <path id="Path-8" data-name="Path" d="M0,8.942V0H1.148V8.942Z" transform="translate(-818.295 3257.433)" fill="#fff" stroke="#fff" stroke-miterlimit="10" stroke-width="0.2"/>
    <path id="Path-9" data-name="Path" d="M3.651,8.942H2.5V1.1H0V0H6.14V1.1H3.651Z" transform="translate(-815.702 3257.433)" fill="#fff" stroke="#fff" stroke-miterlimit="10" stroke-width="0.2"/>
    <path id="Subtraction_27" data-name="Subtraction 27" d="M4.6,9.351A4.622,4.622,0,0,1,1.317,8a4.833,4.833,0,0,1,0-6.633A4.591,4.591,0,0,1,4.6,0a4.655,4.655,0,0,1,3.28,1.366A4.814,4.814,0,0,1,7.875,8,4.622,4.622,0,0,1,4.6,9.351Zm0-8.229a3.421,3.421,0,0,0-2.43,1,3.8,3.8,0,0,0,0,5.127,3.442,3.442,0,0,0,4.858,0,3.8,3.8,0,0,0,0-5.127A3.418,3.418,0,0,0,4.6,1.122Z" transform="translate(-805.796 3257.215)" fill="#fff" stroke="#fff" stroke-miterlimit="10" stroke-width="0.2"/>
    <path id="Path-10" data-name="Path" d="M0,8.942V0H1.4L5.753,6.96V0H6.9V8.942H5.708L1.163,1.654V8.942Z" transform="translate(-794.985 3257.433)" fill="#fff" stroke="#fff" stroke-miterlimit="10" stroke-width="0.2"/>
    <path id="Shape" d="M.691.1A2.981,2.981,0,0,0,.005,2.191V35.159a2.981,2.981,0,0,0,.686,2.087l.1.1L19.261,18.9v-.432L.8,0Z" transform="translate(-892.761 3258.133)" fill="url(#linear-gradient-2)"/>
    <path id="Shape-2" data-name="Shape" d="M6.111,12.758,0,6.6V6.17L6.111,0l.134.075,7.318,4.158c2.087,1.177,2.087,3.115,0,4.307L6.275,12.683Z" transform="translate(-873.5 3270.429)" fill="url(#linear-gradient-3)"/>
    <path id="Shape-3" data-name="Shape" d="M24.86,6.29,18.57,0,0,18.57a2.429,2.429,0,0,0,3.1.089L24.875,6.29" transform="translate(-892.07 3276.808)" fill="url(#linear-gradient-4)"/>
    <path id="Shape-4" data-name="Shape" d="M24.875,12.886,3.1.515A2.429,2.429,0,0,0,0,.6l18.585,18.57Z" transform="translate(-892.085 3257.633)" fill="url(#linear-gradient-5)"/>
    <path id="Shape-5" data-name="Shape" d="M24.681,0,3.085,12.3A2.489,2.489,0,0,1,.1,12.3l-.1.1.1.1a2.474,2.474,0,0,0,2.981,0L24.86.134Z" transform="translate(-892.07 3282.963)" opacity="0.2"/>
    <path id="Path-11" data-name="Path" d="M.691,2.087A2.981,2.981,0,0,1,.005,0V.224A2.981,2.981,0,0,0,.691,2.31l.1-.1Z" transform="translate(-892.761 3293.083)" opacity="0.12"/>
    <path id="Path-12" data-name="Path" d="M7.452,1.938,0,6.155l.134.134L7.452,2.146A2.608,2.608,0,0,0,8.942,0,2.772,2.772,0,0,1,7.452,1.938Z" transform="translate(-867.389 3276.808)" opacity="0.12"/>
    <path id="Shape-6" data-name="Shape" d="M3.786.706,32.834,17.22a2.772,2.772,0,0,1,1.49,1.938,2.608,2.608,0,0,0-1.49-2.146L3.786.5C1.7-.68,0,.3,0,2.689v.224C.045.513,1.714-.471,3.786.706Z" transform="translate(-892.77 3257.65)" fill="#fff" opacity="0.25"/>
  </g>
</svg>
