<svg xmlns="http://www.w3.org/2000/svg" width="95" height="95" viewBox="0 0 95 95">
  <g id="Group_3431" data-name="Group 3431" transform="translate(-1123 -1249)">
    <circle id="Ellipse_2" data-name="Ellipse 2" cx="47.5" cy="47.5" r="47.5" transform="translate(1123 1249)" fill="#fff" opacity="0.15"/>
    <g id="_4185743" data-name="4185743" transform="translate(1149 1273.668)">
      <g id="Group_57" data-name="Group 57" transform="translate(0 0)">
        <path id="Path_307" data-name="Path 307" d="M19.99,31.727a.666.666,0,0,0,.666-.666V1.588a.257.257,0,0,1,.257-.257H45.279V8.037a1.59,1.59,0,0,0,1.588,1.588h6.67v4.094a.666.666,0,1,0,1.331,0V8.941a.666.666,0,0,0-.2-.471L46.4.195A.666.666,0,0,0,45.928,0H20.912a1.59,1.59,0,0,0-1.588,1.588V31.062a.666.666,0,0,0,.666.666ZM46.611,8.037V2.29l6,6H46.867A.257.257,0,0,1,46.611,8.037Z" transform="translate(-19.324 0)" fill="#fff"/>
        <path id="Path_308" data-name="Path 308" d="M54.2,380.017a.666.666,0,0,0-.666.666v4.574a.257.257,0,0,1-.257.257H20.912a.257.257,0,0,1-.257-.257V375.079a.666.666,0,0,0-1.331,0v10.178a1.59,1.59,0,0,0,1.588,1.588H53.281a1.59,1.59,0,0,0,1.588-1.588v-4.574A.666.666,0,0,0,54.2,380.017Z" transform="translate(-19.324 -341.18)" fill="#fff"/>
        <path id="Path_309" data-name="Path 309" d="M324.134,184.868a8.329,8.329,0,1,0-12.953,6.924v6.084a1.245,1.245,0,0,0,1.735,1.144l2.889-1.238,2.889,1.238a1.245,1.245,0,0,0,1.735-1.144v-6.084A8.327,8.327,0,0,0,324.134,184.868ZM319.1,197.744l-2.8-1.2a1.25,1.25,0,0,0-.981,0l-2.8,1.2v-5.227a8.321,8.321,0,0,0,6.586,0Zm-3.293-5.879a7,7,0,1,1,7-7A7.005,7.005,0,0,1,315.8,191.865Z" transform="translate(-281.9 -160.869)" fill="#fff"/>
        <path id="Path_310" data-name="Path 310" d="M348.168,209.592a.666.666,0,0,0-1.181.616,4.275,4.275,0,0,1,.489,2,4.341,4.341,0,1,1-2.2-3.772.666.666,0,1,0,.657-1.158,5.671,5.671,0,1,0,2.239,2.318Z" transform="translate(-309.237 -188.206)" fill="#fff"/>
        <path id="Path_311" data-name="Path 311" d="M370.065,236.4l-1.239-.18-.554-1.122a.856.856,0,0,0-1.534,0l-.554,1.122-1.239.18a.856.856,0,0,0-.474,1.459l.9.874-.212,1.234a.855.855,0,0,0,1.241.9l1.108-.582,1.108.582a.856.856,0,0,0,1.241-.9l-.212-1.234.9-.874a.856.856,0,0,0-.474-1.459Zm-1.531,1.554a.855.855,0,0,0-.246.757l.091.53L367.9,239a.857.857,0,0,0-.8,0l-.476.25.091-.53a.855.855,0,0,0-.246-.757l-.385-.375.532-.077a.856.856,0,0,0,.644-.468l.238-.482.238.482a.855.855,0,0,0,.644.468l.532.077Z" transform="translate(-333.6 -213.8)" fill="#fff"/>
        <path id="Path_312" data-name="Path 312" d="M164.181,132.638v-2.251a.666.666,0,1,0-1.331,0v1.586H148.227a.666.666,0,0,0,0,1.331h15.288A.666.666,0,0,0,164.181,132.638Z" transform="translate(-136.179 -118.207)" fill="#fff"/>
        <path id="Path_313" data-name="Path 313" d="M69.695,73.819h16.17a.666.666,0,0,0,0-1.331H69.695a1.584,1.584,0,0,0-1.583,1.583v5.5a1.584,1.584,0,0,0,1.583,1.583h3.29a.666.666,0,0,0,0-1.331h-3.29a.252.252,0,0,1-.251-.251v-5.5A.252.252,0,0,1,69.695,73.819Z" transform="translate(-63.782 -66.054)" fill="#fff"/>
        <path id="Path_314" data-name="Path 314" d="M68.779,220.153H86.27a.666.666,0,1,0,0-1.331H68.779a.666.666,0,0,0,0,1.331Z" transform="translate(-63.782 -199.399)" fill="#fff"/>
        <path id="Path_315" data-name="Path 315" d="M68.779,270.231H86.27a.666.666,0,1,0,0-1.331H68.779a.666.666,0,1,0,0,1.331Z" transform="translate(-63.782 -245.033)" fill="#fff"/>
        <path id="Path_316" data-name="Path 316" d="M87.944,318.979H68.779a.666.666,0,1,0,0,1.331H87.944a.666.666,0,0,0,0-1.331Z" transform="translate(-63.783 -290.667)" fill="#fff"/>
        <path id="Path_317" data-name="Path 317" d="M90.024,369.058H68.779a.666.666,0,0,0,0,1.331H90.024a.666.666,0,0,0,0-1.331Z" transform="translate(-63.783 -336.301)" fill="#fff"/>
        <path id="Path_318" data-name="Path 318" d="M68.113,419.8a.666.666,0,0,0,.666.666h22.34a.666.666,0,1,0,0-1.331H68.779A.666.666,0,0,0,68.113,419.8Z" transform="translate(-63.783 -381.935)" fill="#fff"/>
      </g>
    </g>
  </g>
</svg>
