<svg xmlns="http://www.w3.org/2000/svg" width="95" height="95" viewBox="0 0 95 95">
  <g id="Group_3428" data-name="Group 3428" transform="translate(-1256 -1638)">
    <circle id="Ellipse_5" data-name="Ellipse 5" cx="47.5" cy="47.5" r="47.5" transform="translate(1256 1638)" fill="#dcf6ff"/>
    <g id="_3930477" data-name="3930477" transform="translate(1281 1662.759)">
      <path id="Path_278" data-name="Path 278" d="M75.718,67.241a.666.666,0,0,0,.941-.942L74.918,64.56a.666.666,0,0,0-.941.942Z" transform="translate(-68.165 -58.65)" fill="#00aeef"/>
      <path id="Path_279" data-name="Path 279" d="M11,176.324l2.378.637a.667.667,0,0,0,.344-1.286l-2.378-.637A.666.666,0,0,0,11,176.324Z" transform="translate(-10.522 -159.478)" fill="#00aeef"/>
      <path id="Path_280" data-name="Path 280" d="M13.962,295.4l-2.378.637a.667.667,0,0,0,.344,1.286l2.378-.636A.666.666,0,0,0,13.962,295.4Z" transform="translate(-11.068 -269.158)" fill="#00aeef"/>
      <path id="Path_281" data-name="Path 281" d="M76.89,393.4l-1.741,1.739a.666.666,0,0,0,.941.942l1.741-1.739A.666.666,0,0,0,76.89,393.4Z" transform="translate(-69.233 -358.303)" fill="#00aeef"/>
      <path id="Path_282" data-name="Path 282" d="M405.265,392.23a.666.666,0,0,0-.941.942l1.741,1.739a.666.666,0,0,0,.941-.942Z" transform="translate(-369.191 -357.236)" fill="#00aeef"/>
      <path id="Path_283" data-name="Path 283" d="M463.813,294.44l-2.378-.637a.666.666,0,0,0-.344,1.286l2.378.637A.667.667,0,0,0,463.813,294.44Z" transform="translate(-420.664 -267.702)" fill="#00aeef"/>
      <path id="Path_284" data-name="Path 284" d="M460.809,175.384a.665.665,0,0,0,.173-.023l2.378-.637a.666.666,0,0,0-.344-1.286l-2.378.637A.668.668,0,0,0,460.809,175.384Z" transform="translate(-420.248 -158.02)" fill="#00aeef"/>
      <path id="Path_285" data-name="Path 285" d="M403.813,66.266a.664.664,0,0,0,.47-.195l1.741-1.739a.666.666,0,0,0-.941-.942l-1.741,1.739A.682.682,0,0,0,403.813,66.266Z" transform="translate(-368.313 -57.585)" fill="#00aeef"/>
      <path id="Path_286" data-name="Path 286" d="M305.128,3.667a.706.706,0,0,0,.815-.471L306.58.821a.666.666,0,0,0-1.286-.345l-.637,2.376A.666.666,0,0,0,305.128,3.667Z" transform="translate(-278.529 0.001)" fill="#00aeef"/>
      <path id="Path_287" data-name="Path 287" d="M184.777,3.625a.666.666,0,0,0,1.286-.345L185.425.9a.666.666,0,0,0-1.286.345Z" transform="translate(-168.706 -0.389)" fill="#00aeef"/>
      <path id="Path_288" data-name="Path 288" d="M118.107,77.187a6.472,6.472,0,0,0-4.8-6.242,5.4,5.4,0,0,0-10.059-1.705,5.345,5.345,0,0,0-.5-.752,5.4,5.4,0,0,0-9.561,2.461A6.5,6.5,0,0,0,90.2,72.7a.666.666,0,0,0,.957.925,5.164,5.164,0,0,1,3.693-1.566.666.666,0,0,0,0-1.331H94.6a4.069,4.069,0,0,1,7.981.985V93.284a4.069,4.069,0,0,1-7.982.987h.254a.666.666,0,0,0,.017-1.331,5.229,5.229,0,0,1-4.608-2.794,6.515,6.515,0,0,1-.552-2.153c-.061-2.592-.035-5.2-.011-7.725.011-1.09.022-2.217.026-3.34a.666.666,0,0,0-1.331-.005c-.014,3.738-.1,7.353-.014,11.14a6.414,6.414,0,0,0,4.8,5.97,5.38,5.38,0,0,0,4.209,4.4,2.072,2.072,0,0,0,.525,1.487,2.033,2.033,0,0,0,1.237,3.369,2.038,2.038,0,0,0,1.9,2.74h4.387a2.038,2.038,0,0,0,1.9-2.74,2.033,2.033,0,0,0,1.237-3.369,2.069,2.069,0,0,0,.525-1.479,5.426,5.426,0,0,0,4.206-4.387,6.472,6.472,0,0,0,4.8-6.242V77.187ZM105.442,104.7h-4.387a.7.7,0,0,1-.021-1.391h4.429A.7.7,0,0,1,105.442,104.7Zm1.633-2.723H99.422a.7.7,0,0,1-.068-1.388h3.362a.666.666,0,0,0,0-1.331H99.5a.8.8,0,0,1-.773-.707,5.339,5.339,0,0,0,1.858-.4,5.428,5.428,0,0,0,2.658-2.4,5.408,5.408,0,0,0,4.528,2.805c-.106.581-.443.7-.972.7a.666.666,0,0,0,0,1.331c.114,0,.23,0,.344,0A.7.7,0,0,1,107.075,101.976Zm9.7-14.164a5.137,5.137,0,0,1-5.134,5.128.666.666,0,0,0,0,1.331h.256a4.075,4.075,0,0,1-7.984-.988V71.714a4.075,4.075,0,0,1,7.984-.986h-.256a.666.666,0,0,0,0,1.331,5.136,5.136,0,0,1,5.134,5.128Z" transform="translate(-81.435 -60.547)" fill="#00aeef"/>
      <path id="Path_289" data-name="Path 289" d="M300.37,301.959a5.335,5.335,0,0,0-5.332,5.327.666.666,0,1,0,1.331,0,4,4,0,0,1,4-4A.666.666,0,0,0,300.37,301.959Z" transform="translate(-269.784 -275.157)" fill="#00aeef"/>
      <path id="Path_290" data-name="Path 290" d="M150.672,303.29a4,4,0,0,1,4,4,.666.666,0,1,0,1.331,0,5.335,5.335,0,0,0-5.332-5.327A.666.666,0,0,0,150.672,303.29Z" transform="translate(-137.63 -275.157)" fill="#00aeef"/>
      <path id="Path_291" data-name="Path 291" d="M155.289,132.6a.666.666,0,0,0-.666.666,4,4,0,0,1-4,4,.666.666,0,0,0,0,1.331,5.335,5.335,0,0,0,5.332-5.327A.666.666,0,0,0,155.289,132.6Z" transform="translate(-137.581 -120.833)" fill="#00aeef"/>
      <path id="Path_292" data-name="Path 292" d="M300.37,137.263a4,4,0,0,1-4-4,.666.666,0,1,0-1.331,0,5.335,5.335,0,0,0,5.332,5.327A.666.666,0,0,0,300.37,137.263Z" transform="translate(-269.784 -120.832)" fill="#00aeef"/>
      <path id="Path_293" data-name="Path 293" d="M194.642,216.16a.666.666,0,0,0-.941,0,3.656,3.656,0,0,0,0,5.177.666.666,0,0,0,.941-.942,2.336,2.336,0,0,1,0-3.293A.666.666,0,0,0,194.642,216.16Z" transform="translate(-176.463 -196.796)" fill="#00aeef"/>
      <path id="Path_294" data-name="Path 294" d="M294.795,221.317a.666.666,0,0,0,.941,0,3.673,3.673,0,0,0,0-5.177.666.666,0,0,0-.941.942,2.336,2.336,0,0,1,0,3.293A.666.666,0,0,0,294.795,221.317Z" transform="translate(-269.384 -196.777)" fill="#00aeef"/>
    </g>
  </g>
</svg>
