 <svg
                    xmlns="http://www.w3.org/2000/svg"
                    xmlns:xlink="http://www.w3.org/1999/xlink"
                    viewBox="0 0 117.402 108.196"
                  >
                    <defs>
                      <linearGradient
                        id="linear-gradient"
                        x1="0.254"
                        y1="0.169"
                        x2="0.902"
                        y2="1"
                        gradientUnits="objectBoundingBox"
                      >
                        <stop offset="0" stop-color="#00aeef" />
                        <stop offset="1" stop-color="#2e3192" />
                      </linearGradient>
                    </defs>
                    <path
                      id="Union_3"
                      data-name="Union 3"
                      d="M113.486,107.524l-4.684-4.684-3.689,3.689a3.941,3.941,0,0,1-5.567,0l-3.695-3.7-3.67,3.671a3.943,3.943,0,0,1-5.567,0l-3.88-3.88-3.445,3.446a3.937,3.937,0,0,1-6.172-.783l-5.336-9.04a21.4,21.4,0,0,1-25.709-3.435L30.645,81.385a2.293,2.293,0,0,1,3.243-3.244L45.314,89.567a16.8,16.8,0,0,0,21.225,2.056l2.92-1.965-20.4-20.4-1.5,1.114a5.792,5.792,0,0,1-7.507-.552L29.234,59a5.8,5.8,0,0,1-.552-7.507l1.045-1.406L9.331,29.7l-1.9,2.822A16.8,16.8,0,0,0,9.488,53.741L20.915,65.168a2.293,2.293,0,0,1-3.243,3.243L6.245,56.985A21.4,21.4,0,0,1,3.628,29.955l3.438-5.109.007-.011.278-.413a12.312,12.312,0,0,1,18.919-1.832l9.468,9.468A12.383,12.383,0,0,1,36.916,48.1L32.364,54.23a1.181,1.181,0,0,0,.113,1.53L43.3,66.579a1.18,1.18,0,0,0,1.53.112l6.127-4.55A12.382,12.382,0,0,1,67,63.319l9.468,9.467a12.312,12.312,0,0,1-1.833,18.92l-.317.213-.007,0-2.687,1.808,5.016,8.5,3.313-3.312a3.942,3.942,0,0,1,5.566,0l3.88,3.88,3.67-3.671a3.943,3.943,0,0,1,5.567,0l3.695,3.695,3.688-3.688a3.937,3.937,0,0,1,5.567,0l5.145,5.145a2.293,2.293,0,0,1-3.244,3.242Zm-59.8-41.7-.906.673L73.23,86.944a7.721,7.721,0,0,0-.009-10.913l-9.467-9.468a7.767,7.767,0,0,0-10.066-.74ZM16.82,23.608a7.693,7.693,0,0,0-4.789,2.3l20.46,20.46.742-1a7.769,7.769,0,0,0-.74-10.066l-9.467-9.469a7.69,7.69,0,0,0-5.452-2.262Q17.2,23.572,16.82,23.608ZM24.159,74.9a2.292,2.292,0,1,1,1.621.672A2.3,2.3,0,0,1,24.159,74.9Zm43.366-19.8a2.294,2.294,0,0,1-1.415-2.119V48.616H60.759a11.709,11.709,0,0,1-11.7-11.7V11.7A11.709,11.709,0,0,1,60.759,0h44.947a11.708,11.708,0,0,1,11.7,11.7V36.921a11.708,11.708,0,0,1-11.7,11.7H76L70.025,54.6a2.295,2.295,0,0,1-2.5.5ZM53.65,11.7V36.921a7.117,7.117,0,0,0,7.109,7.109H68.4A2.293,2.293,0,0,1,70.7,46.324v1.114L73.432,44.7a2.293,2.293,0,0,1,1.622-.672h30.653a7.117,7.117,0,0,0,7.109-7.109V11.7a7.117,7.117,0,0,0-7.109-7.109H60.759A7.117,7.117,0,0,0,53.65,11.7ZM61.2,38.259a2.294,2.294,0,0,1-2.293-2.294V32.338a9.066,9.066,0,0,1,7.072-8.832,7.985,7.985,0,0,1-.893-3.673V18.4a8.039,8.039,0,1,1,16.077,0v1.436a8,8,0,0,1-.892,3.673,9.067,9.067,0,0,1,7.071,8.832v3.627a2.294,2.294,0,0,1-2.293,2.294ZM63.5,32.338v1.335H82.76V32.338a4.472,4.472,0,0,0-4.467-4.467H67.964A4.472,4.472,0,0,0,63.5,32.338ZM69.677,18.4v1.436a3.452,3.452,0,0,0,6.9,0V18.4a3.452,3.452,0,1,0-6.9,0ZM94.469,37.044a2.293,2.293,0,0,1,0-4.586h9.709a2.293,2.293,0,1,1,0,4.586Zm0-9.173a2.293,2.293,0,0,1,0-4.586h9.709a2.293,2.293,0,1,1,0,4.586Zm0-9.172a2.293,2.293,0,0,1,0-4.586h9.709a2.293,2.293,0,1,1,0,4.586Z"
                      fill="url(#linear-gradient)"
                    />
                  </svg>