<svg
                    xmlns="http://www.w3.org/2000/svg"
                    xmlns:xlink="http://www.w3.org/1999/xlink"
                    viewBox="0 0 116.21 99.333"
                  >
                    <defs>
                      <linearGradient
                        id="linear-gradient"
                        x1="0.254"
                        y1="0.169"
                        x2="0.902"
                        y2="1"
                        gradientUnits="objectBoundingBox"
                      >
                        <stop offset="0" stop-color="#00aeef" />
                        <stop offset="1" stop-color="#2e3192" />
                      </linearGradient>
                    </defs>
                    <path
                      id="Union_1"
                      data-name="Union 1"
                      d="M84.453,89.23H74.706v-16.6h9.747l15.155-10.1V99.333Zm2.7-13.415v10.23l8.3,5.534V70.28Zm-8.3,9.265h4.151v-8.3H78.856Zm30.164,1.111a10.375,10.375,0,0,0,0-14.672l2.935-2.934a14.523,14.523,0,0,1,0,20.54Zm-5.87-5.869a2.077,2.077,0,0,0,0-2.934l2.934-2.935a6.229,6.229,0,0,1,0,8.8ZM16.6,64.329a16.6,16.6,0,1,1,0-33.2h.135a18.8,18.8,0,0,1,3.18-8.5,8.327,8.327,0,0,1,6.6-5.915,18.647,18.647,0,0,1,17.536,0,24.882,24.882,0,0,1,45.181,14.41v.131a16.6,16.6,0,0,1-2.075,33.074ZM4.15,47.728A12.464,12.464,0,0,0,16.6,60.178H87.157a12.451,12.451,0,1,0,0-24.9H84.883l.1-2.257c.057-.625.1-1.252.1-1.893a20.736,20.736,0,0,0-38.6-10.538l-1.133,1.918-1.832-1.264A14.5,14.5,0,0,0,27.9,20.691v.06h-.1a14.642,14.642,0,0,0-4.006,3.564,4.169,4.169,0,0,0-.041.584h-.389a14.445,14.445,0,0,0-2.611,8.3v2.391l-2.359-.17A12.348,12.348,0,0,0,4.15,47.728Zm4.151,0h4.15a4.155,4.155,0,0,0,4.151,4.15v4.151A8.309,8.309,0,0,1,8.3,47.728ZM3,24.9A24.93,24.93,0,0,1,27.9,0V4.15A20.775,20.775,0,0,0,7.151,24.9Zm8.3,0A16.621,16.621,0,0,1,27.9,8.3v4.15A12.464,12.464,0,0,0,15.451,24.9Z"
                      fill="url(#linear-gradient)"
                    />
                  </svg>