<svg xmlns="http://www.w3.org/2000/svg" width="95" height="95" viewBox="0 0 95 95">
  <g id="Group_3427" data-name="Group 3427" transform="translate(-1484 -1272)">
    <circle id="Ellipse_3" data-name="Ellipse 3" cx="47.5" cy="47.5" r="47.5" transform="translate(1484 1272)" fill="#f2f7ff"/>
    <g id="_950299" data-name="950299" transform="translate(1508 1296.668)">
      <g id="Group_59" data-name="Group 59" transform="translate(0.001 7.336)">
        <g id="Group_58" data-name="Group 58">
          <path id="Path_319" data-name="Path 319" d="M37.438,112.278l-1.7-5.1a5.135,5.135,0,0,0-3.953-3.428l-4.9-.892v-.38a7.383,7.383,0,0,0,2.187-1.942h1.481a2.2,2.2,0,0,0,2.2-2.2v-8.8a9.537,9.537,0,1,0-19.073,0v5.135a2.939,2.939,0,0,0,2.339,2.873,7.35,7.35,0,0,0,3.529,4.937v.38l-4.9.892a5.134,5.134,0,0,0-3.953,3.428l-.293.881-2.5-2.5a.735.735,0,0,1,0-1.038l2.9-2.9L5.359,96.191,2.084,99.466a5.135,5.135,0,0,0,0,7.262L12,116.642a5.133,5.133,0,0,0,7.239.022l3.573-3.274L21.7,112.278ZM31.285,98.34a.734.734,0,0,1-.734.734h-.617a7.287,7.287,0,0,0,.478-1.528,2.906,2.906,0,0,0,.872-.347Zm-.734-2.4V93.409a1.454,1.454,0,0,1,0,2.526Zm-14.672,0a1.454,1.454,0,0,1,0-2.526Zm0-4.931v.838a2.91,2.91,0,0,0-.734.3V89.537a8.07,8.07,0,1,1,16.139,0v2.609a2.884,2.884,0,0,0-.734-.3V91h-.734a8.071,8.071,0,0,1-5.743-2.379l-.859-.859-.859.859A8.071,8.071,0,0,1,16.613,91Zm1.467,5.135v-3.7a9.511,9.511,0,0,0,5.869-2.607,9.507,9.507,0,0,0,5.869,2.607v3.7a5.825,5.825,0,0,1-.794,2.934H23.216v1.467h3.869a5.859,5.859,0,0,1-9.738-4.4Zm8.07,7v.034l-2.2,2.2-2.2-2.2v-.034a7.33,7.33,0,0,0,4.4,0Zm-13.334,4.509a3.669,3.669,0,0,1,2.824-2.449l5.128-.932,3.182,3.182,3.181-3.181,5.127.932a3.668,3.668,0,0,1,2.824,2.449l1.056,3.164H20.229l-2.857-2.857L14.2,110.826a.749.749,0,0,1-1.037,0l-1.6-1.6Zm-6.725-9.38,3.364,3.364-.8.8L4.561,99.062Zm12.864,17.341a3.669,3.669,0,0,1-5.187,0L3.12,105.691a3.669,3.669,0,0,1,0-5.187l.4-.4,3.364,3.364-.026.026a2.2,2.2,0,0,0,0,3.113l5.261,5.261a2.189,2.189,0,0,0,1.557.645,2.16,2.16,0,0,0,1.53-.619l.055-.049,3.38,3.38Zm1.5-1.379-3.372-3.372.969-.876,3.366,3.366Z" transform="translate(-0.58 -80)" fill="#2e3192"/>
        </g>
      </g>
      <g id="Group_61" data-name="Group 61" transform="translate(30.706)">
        <g id="Group_60" data-name="Group 60">
          <path id="Path_320" data-name="Path 320" d="M347.9,0h-10.27a2.2,2.2,0,0,0-2.2,2.2V8.07a2.2,2.2,0,0,0,2.2,2.2h1.959l-.759,4.424,7.079-4.424h1.99a2.2,2.2,0,0,0,2.2-2.2V2.2A2.2,2.2,0,0,0,347.9,0Zm.734,8.07a.735.735,0,0,1-.734.734h-2.411l-4.659,2.912.5-2.912h-3.7a.735.735,0,0,1-.734-.734V2.2a.735.735,0,0,1,.734-.734H347.9a.735.735,0,0,1,.734.734Z" transform="translate(-335.428)" fill="#2e3192"/>
        </g>
      </g>
      <g id="Group_63" data-name="Group 63" transform="translate(33.64 2.934)">
        <g id="Group_62" data-name="Group 62">
          <rect id="Rectangle_339" data-name="Rectangle 339" width="8.803" height="1.467" fill="#2e3192"/>
        </g>
      </g>
      <g id="Group_65" data-name="Group 65" transform="translate(33.64 5.869)">
        <g id="Group_64" data-name="Group 64">
          <rect id="Rectangle_340" data-name="Rectangle 340" width="5.869" height="1.467" fill="#2e3192"/>
        </g>
      </g>
      <g id="Group_67" data-name="Group 67" transform="translate(40.976 5.869)">
        <g id="Group_66" data-name="Group 66">
          <rect id="Rectangle_341" data-name="Rectangle 341" width="1.467" height="1.467" fill="#2e3192"/>
        </g>
      </g>
      <g id="Group_69" data-name="Group 69" transform="translate(0 2.201)">
        <g id="Group_68" data-name="Group 68">
          <path id="Path_321" data-name="Path 321" d="M23.208,24A20.527,20.527,0,0,0,3.22,39.879L1.83,37.561l-1.258.755,2.579,4.3,4.3-2.579-.755-1.258L4.7,39.969A19.078,19.078,0,0,1,28.86,26.318l.434-1.4A20.527,20.527,0,0,0,23.208,24Z" transform="translate(-0.572 -24)" fill="#2e3192"/>
        </g>
      </g>
      <g id="Group_71" data-name="Group 71" transform="translate(37.456 13.665)">
        <g id="Group_70" data-name="Group 70">
          <path id="Path_322" data-name="Path 322" d="M416.6,151.595l-4.3-2.579-2.578,4.3,1.258.755,1.284-2.14a19.09,19.09,0,0,1-3.233,18.173l1.139.924a20.544,20.544,0,0,0,3.515-19.467l2.156,1.293Z" transform="translate(-409.036 -149.016)" fill="#2e3192"/>
        </g>
      </g>
    </g>
  </g>
</svg>
