<svg
                    id="XMLID_831_"
                    xmlns="http://www.w3.org/2000/svg"
                    xmlns:xlink="http://www.w3.org/1999/xlink"
                    viewBox="0 0 114.134 114.134"
                  >
                    <defs>
                      <linearGradient
                        id="linear-gradient"
                        x1="0.254"
                        y1="0.169"
                        x2="0.902"
                        y2="1"
                        gradientUnits="objectBoundingBox"
                      >
                        <stop offset="0" stop-color="#00aeef" />
                        <stop offset="1" stop-color="#2e3192" />
                      </linearGradient>
                    </defs>
                    <path
                      id="XMLID_834_"
                      d="M79,76.774H72.162l-3.554-1.582V70.877a24.133,24.133,0,0,0,10.91-12.565h3.049a13.161,13.161,0,0,0,7-24.308V32.5a32.5,32.5,0,0,0-65,0V34a13.161,13.161,0,0,0,7,24.309h3.05a24.133,24.133,0,0,0,10.91,12.565v4.3l-3.594,1.6h-6.8A35.171,35.171,0,0,0,0,111.9a2.229,2.229,0,0,0,2.229,2.229H47.036a2.229,2.229,0,1,0,0-4.458H4.538A30.717,30.717,0,0,1,33.7,81.266c-.006.019-.014.037-.019.055a2.23,2.23,0,0,0,.3,1.864l10.545,15.5a2.229,2.229,0,0,0,1.634.966q.1.01.21.01a2.229,2.229,0,0,0,1.576-.653l9.1-9.1,9.1,9.1a2.229,2.229,0,0,0,1.576.653c.07,0,.14,0,.21-.01a2.229,2.229,0,0,0,1.634-.966l10.545-15.5a2.23,2.23,0,0,0,.3-1.864c-.006-.019-.014-.037-.02-.057a30.716,30.716,0,0,1,29.2,28.411H67.1a2.229,2.229,0,1,0,0,4.458H111.9a2.229,2.229,0,0,0,2.229-2.229A35.171,35.171,0,0,0,79,76.774ZM76.558,34.69a25.771,25.771,0,0,1-12.529-5.343,2.229,2.229,0,0,0-2.74-.02,26.986,26.986,0,0,1-16.566,5.616,27.256,27.256,0,0,1-7.14-.952V32.858a19.483,19.483,0,0,1,38.966,0S76.553,34.63,76.558,34.69Zm6.009,19.164H81.061V36.438h1.506a8.708,8.708,0,0,1,0,17.416Zm-25.5-49.4A28.075,28.075,0,0,1,85.107,32.228a13.177,13.177,0,0,0-2.54-.248H80.989a23.94,23.94,0,0,0-47.847,0H31.565a13.165,13.165,0,0,0-2.539.248A28.075,28.075,0,0,1,57.067,4.458Zm-24,49.4H31.565a8.708,8.708,0,0,1,0-17.416h1.506V53.853Zm4.458-4.008V38.579a31.753,31.753,0,0,0,7.194.822,31.381,31.381,0,0,0,17.9-5.538A30.182,30.182,0,0,0,76.6,39.187V49.965a19.456,19.456,0,0,1-.978,5.989H64.979a6.716,6.716,0,0,0-6.323-4.476H55.672a6.705,6.705,0,0,0,0,13.411h2.984a6.716,6.716,0,0,0,6.323-4.476h8.513A19.533,19.533,0,0,1,37.529,49.845ZM60.9,58.183a2.249,2.249,0,0,1-2.247,2.247H55.673a2.247,2.247,0,0,1,0-4.494h2.984A2.249,2.249,0,0,1,60.9,58.183ZM57.067,73.841a23.915,23.915,0,0,0,7.083-1.067V76.5l-7.1,7.1-7.063-7.063V72.774a23.917,23.917,0,0,0,7.083,1.067ZM46.7,93.953l-7.53-11.07,7.511-3.342,7.216,7.216Zm20.7,0-7.2-7.2,7.216-7.216,7.511,3.342Z"
                      transform="translate(0 0)"
                      fill="url(#linear-gradient)"
                    />
                    <path
                      id="XMLID_843_"
                      d="M248.229,492a2.23,2.23,0,1,0,1.576.653A2.245,2.245,0,0,0,248.229,492Z"
                      transform="translate(-191.162 -382.325)"
                      fill="url(#linear-gradient)"
                    />
                  </svg>