<svg
                    xmlns="http://www.w3.org/2000/svg"
                    xmlns:xlink="http://www.w3.org/1999/xlink"
                    viewBox="0 0 113.859 113.859"
                  >
                    <defs>
                      <linearGradient
                        id="linear-gradient"
                        x1="0.254"
                        y1="0.169"
                        x2="0.902"
                        y2="1"
                        gradientUnits="objectBoundingBox"
                      >
                        <stop offset="0" stop-color="#00aeef" />
                        <stop offset="1" stop-color="#2e3192" />
                      </linearGradient>
                    </defs>
                    <path
                      id="Union_4"
                      data-name="Union 4"
                      d="M78.967,113.859a1.835,1.835,0,0,1-1.837-1.837v-7.346A12.872,12.872,0,0,1,87.525,92.065a10.969,10.969,0,0,1-3.049-7.589V80.8a11.019,11.019,0,1,1,22.037,0v3.672a10.969,10.969,0,0,1-3.049,7.589,12.872,12.872,0,0,1,10.395,12.612v7.346a1.835,1.835,0,0,1-1.837,1.837Zm27.546-11.018v7.346h3.673v-5.51A9.193,9.193,0,0,0,101,95.5H89.985a9.192,9.192,0,0,0-9.182,9.182v5.51h3.672v-7.346h3.673v7.346h14.692v-7.346ZM88.149,80.8v3.672a7.346,7.346,0,1,0,14.692,0V80.8a7.346,7.346,0,0,0-14.692,0ZM1.837,113.859A1.835,1.835,0,0,1,0,112.023v-7.346A12.873,12.873,0,0,1,10.394,92.065a10.972,10.972,0,0,1-3.048-7.589V80.8a11.019,11.019,0,1,1,22.037,0v3.672a10.969,10.969,0,0,1-3.049,7.589,12.872,12.872,0,0,1,10.395,12.612v7.346a1.835,1.835,0,0,1-1.837,1.837Zm27.546-11.018v7.346h3.672v-5.51A9.192,9.192,0,0,0,23.874,95.5H12.855a9.193,9.193,0,0,0-9.182,9.182v5.51H7.346v-7.346h3.672v7.346H25.71v-7.346ZM11.018,80.8v3.672a7.346,7.346,0,1,0,14.692,0V80.8a7.346,7.346,0,0,0-14.692,0ZM40.4,99.168a1.835,1.835,0,0,1-1.836-1.837V89.986A12.873,12.873,0,0,1,48.959,77.373a10.965,10.965,0,0,1-3.048-7.588V66.112a11.018,11.018,0,1,1,22.036,0v3.672A10.965,10.965,0,0,1,64.9,77.373,12.873,12.873,0,0,1,75.293,89.986v7.346a1.835,1.835,0,0,1-1.836,1.837ZM67.948,88.15v7.345h3.673V89.986A9.192,9.192,0,0,0,62.439,80.8H51.42a9.192,9.192,0,0,0-9.182,9.182v5.509h3.673V88.15h3.672v7.345H64.275V88.15ZM49.584,66.112v3.672a7.346,7.346,0,0,0,14.692,0V66.112a7.346,7.346,0,0,0-14.692,0Zm23.874-1.837a5.516,5.516,0,0,1-5.51-5.509V51.421a5.516,5.516,0,0,1,5.51-5.509h1.836V42.239a1.836,1.836,0,0,1,2.939-1.469l6.855,5.142h6.734a5.515,5.515,0,0,1,5.509,5.509v7.346a5.515,5.515,0,0,1-5.509,5.509ZM71.621,51.421v7.346A1.837,1.837,0,0,0,73.458,60.6H91.822a1.837,1.837,0,0,0,1.837-1.837V51.421a1.838,1.838,0,0,0-1.837-1.837H84.476a1.83,1.83,0,0,1-1.1-.367l-4.408-3.305v1.836a1.836,1.836,0,0,1-1.837,1.837H73.458A1.838,1.838,0,0,0,71.621,51.421ZM35.626,63.909l-6.855-5.142H22.037a5.516,5.516,0,0,1-5.509-5.509V45.912A5.515,5.515,0,0,1,22.037,40.4H40.4a5.516,5.516,0,0,1,5.51,5.509v7.346a5.517,5.517,0,0,1-5.51,5.509H38.565v3.672a1.84,1.84,0,0,1-1.015,1.644,1.859,1.859,0,0,1-.821.193A1.827,1.827,0,0,1,35.626,63.909Zm-15.426-18v7.346a1.838,1.838,0,0,0,1.837,1.836h7.346a1.83,1.83,0,0,1,1.1.368l4.408,3.305V56.93a1.836,1.836,0,0,1,1.837-1.837H40.4a1.838,1.838,0,0,0,1.837-1.836V45.912A1.838,1.838,0,0,0,40.4,44.075H22.037A1.838,1.838,0,0,0,20.2,45.912ZM86.312,56.93V53.257h3.672V56.93Zm-5.509,0V53.257h3.672V56.93Zm-5.51,0V53.257h3.673V56.93Zm-40.4-5.509V47.749h3.673v3.672Zm-5.509,0V47.749h3.672v3.672Zm-5.509,0V47.749h3.672v3.672Zm87.467-7.476L92.976,36.6a1.84,1.84,0,0,1-1.155-1.706V1.837A1.837,1.837,0,0,1,94.339.131L112.7,7.477a1.84,1.84,0,0,1,1.155,1.706V42.239a1.836,1.836,0,0,1-1.837,1.837A1.813,1.813,0,0,1,111.341,43.945ZM95.495,33.65l14.691,5.877v-29.1L95.495,4.549ZM.806,43.759A1.837,1.837,0,0,1,0,42.239V9.183A1.84,1.84,0,0,1,1.155,7.477L19.52.131a1.837,1.837,0,0,1,2.518,1.706V34.893A1.84,1.84,0,0,1,20.882,36.6L2.518,43.945a1.813,1.813,0,0,1-.681.131A1.836,1.836,0,0,1,.806,43.759ZM3.672,10.426v29.1L18.364,33.65V4.549Zm22.037,26.3a1.836,1.836,0,0,1-1.836-1.837V1.837A1.836,1.836,0,0,1,25.71,0H88.149a1.836,1.836,0,0,1,1.836,1.837V34.893a1.836,1.836,0,0,1-1.836,1.837ZM64.275,22.038a5.516,5.516,0,0,1,5.509,5.509v5.509H86.312V3.674H27.546V33.056H44.075V27.547a5.516,5.516,0,0,1,5.509-5.509h7.346a7.353,7.353,0,0,1-7.346-7.346V11.02a7.346,7.346,0,0,1,14.692,0v3.672a7.353,7.353,0,0,1-7.346,7.346Zm0,7.346v3.672h1.837V27.547a1.839,1.839,0,0,0-1.837-1.837H49.584a1.839,1.839,0,0,0-1.837,1.837v5.509h1.837V29.384h3.672v3.672H60.6V29.384ZM53.257,11.02v3.672a3.672,3.672,0,1,0,7.345,0V11.02a3.672,3.672,0,1,0-7.345,0Z"
                      fill="url(#linear-gradient)"
                    />
                  </svg>